<?xml version="1.0" encoding="UTF-8"?>
<svg xmlns="http://www.w3.org/2000/svg" xmlns:xlink="http://www.w3.org/1999/xlink" viewBox="0 0 500 200">
  <defs>
    <style>
      .cls-1 {
        fill: #039;
      }

      .cls-2 {
        isolation: isolate;
      }

      .cls-3 {
        fill: url(#linear-gradient-2);
      }

      .cls-3, .cls-4 {
        mix-blend-mode: multiply;
        opacity: .2;
      }

      .cls-5 {
        fill: url(#linear-gradient-3);
      }

      .cls-5, .cls-6, .cls-7, .cls-8 {
        mix-blend-mode: screen;
      }

      .cls-9 {
        fill: url(#linear-gradient-6);
      }

      .cls-6 {
        fill: url(#linear-gradient-7);
      }

      .cls-7 {
        fill: url(#linear-gradient);
      }

      .cls-4 {
        fill: url(#linear-gradient-4);
      }

      .cls-8 {
        fill: url(#linear-gradient-5);
      }
    </style>
    <linearGradient id="linear-gradient" x1="14.36" y1="93.67" x2="126.15" y2="93.67" gradientUnits="userSpaceOnUse">
      <stop offset="0" stop-color="#085bc1"/>
      <stop offset=".97" stop-color="#19376f"/>
    </linearGradient>
    <linearGradient id="linear-gradient-2" x1="83.89" y1="82.24" x2="120.01" y2="118.27" gradientUnits="userSpaceOnUse">
      <stop offset="0" stop-color="#085bc1"/>
      <stop offset=".98" stop-color="#1cd183"/>
    </linearGradient>
    <linearGradient id="linear-gradient-3" x1="70.19" y1="93.57" x2="126.01" y2="93.57" xlink:href="#linear-gradient-2"/>
    <linearGradient id="linear-gradient-4" x1="14.36" y1="93.72" x2="126.15" y2="93.72" xlink:href="#linear-gradient-2"/>
    <linearGradient id="linear-gradient-5" x1="19.46" y1="142.98" x2="122.53" y2="142.98" xlink:href="#linear-gradient"/>
    <linearGradient id="linear-gradient-6" x1="37.41" y1="98.39" x2="70.94" y2="98.39" gradientUnits="userSpaceOnUse">
      <stop offset="0" stop-color="#085bc1"/>
      <stop offset=".98" stop-color="#27397f"/>
    </linearGradient>
    <linearGradient id="linear-gradient-7" x1="70.94" y1="98.35" x2="104.58" y2="98.35" xlink:href="#linear-gradient-2"/>
  </defs>
  <g class="cls-2">
    <g id="Layer_1" data-name="Layer 1">
      <g>
        <path class="cls-7" d="M70.26,51.83L14.36,135.5h111.78l-55.89-83.67ZM70.26,64.38l42.11,63.04H28.14l42.11-63.04Z"/>
        <polygon class="cls-3" points="70.26 64.38 112.37 127.42 112.34 127.42 126.01 135.3 70.26 51.83 70.19 51.94 70.19 64.48 70.26 64.38"/>
        <polygon class="cls-5" points="70.26 64.38 112.37 127.42 112.34 127.42 126.01 135.3 70.26 51.83 70.19 51.94 70.19 64.48 70.26 64.38"/>
        <g>
          <polygon class="cls-4" points="112.34 127.42 28.14 127.42 70.19 64.48 70.19 51.94 14.36 135.5 126.15 135.5 126.01 135.3 112.34 127.42"/>
          <path class="cls-8" d="M20.27,139.11h0c-2.3,3.44.57,7.73,5.17,7.73h91.12c4.59,0,7.46-4.3,5.17-7.73H20.27Z"/>
          <polygon class="cls-9" points="37.41 123.49 45.79 123.49 70.94 85.84 70.94 73.29 37.41 123.49"/>
          <polygon class="cls-6" points="70.99 73.22 70.94 73.29 70.94 85.84 70.99 85.76 96.2 123.49 104.58 123.49 70.99 73.22"/>
        </g>
      </g>
      <path class="cls-1" d="M138.92,135.21V56.71h9.62v78.49h-9.62ZM145.04,117.28l1.41-16.52,30.27-44.05h11.83l-43.51,60.57ZM179.65,135.21l-21.78-41.89,7.59-8.04,25.97,49.94h-11.78Z"/>
      <path class="cls-1" d="M197.1,135.21V56.71h9.62v78.49h-9.62ZM202.05,104.76v-10.47h21.92c3.14,0,5.66-1.24,7.57-3.72,1.9-2.48,2.85-5.74,2.85-9.77s-.95-7.4-2.85-9.88-4.42-3.72-7.57-3.72h-21.92v-10.47h21.59c4.15,0,7.76,1,10.84,3,3.08,2,5.47,4.8,7.19,8.39s2.57,7.83,2.57,12.69-.86,9.03-2.57,12.63-4.11,6.39-7.19,8.37c-3.08,1.98-6.7,2.97-10.84,2.97h-21.59Z"/>
      <path class="cls-1" d="M249.86,135.21V56.71h9.62v78.49h-9.62ZM255.85,101.79v-10.47h38.05v10.47h-38.05ZM288.8,135.21V56.71h9.62v78.49h-9.62Z"/>
      <path class="cls-1" d="M314.5,67.19v-10.47h48.37v10.47h-48.37ZM333.88,135.21V63.14h9.62v72.07h-9.62Z"/>
      <path class="cls-1" d="M373.77,135.21c-6.82,0-12.1-2.18-15.84-6.53-3.74-4.35-5.61-10.54-5.61-18.57v-6.32c0-8.35,1.8-14.81,5.4-19.38s8.67-6.86,15.2-6.86c6.16,0,10.93,2.59,14.31,7.77,3.38,5.18,5.07,12.45,5.07,21.81v3.67h-33v-8.85h23.85c-.28-4.53-1.31-8.08-3.09-10.63-1.78-2.56-4.16-3.83-7.14-3.83-3.61,0-6.43,1.37-8.44,4.1-2.01,2.74-3.02,6.6-3.02,11.61v7.13c0,4.64,1.08,8.21,3.23,10.69s5.18,3.72,9.08,3.72c1.95,0,3.88-.45,5.8-1.35,1.92-.9,3.63-2.16,5.14-3.78l6.32,7.23c-2.42,2.66-5.14,4.72-8.15,6.18-3.02,1.46-6.05,2.19-9.1,2.19Z"/>
      <path class="cls-1" d="M419.98,135.21c-6.73,0-11.94-2.12-15.63-6.37-3.69-4.25-5.54-10.24-5.54-17.98v-9.23c0-7.67,1.85-13.59,5.54-17.79,3.69-4.19,8.9-6.29,15.63-6.29,3.83,0,7.29.77,10.37,2.32,3.08,1.55,5.53,3.76,7.35,6.64l-6.93,7.13c-1.35-1.8-2.96-3.19-4.81-4.16-1.85-.97-3.8-1.46-5.84-1.46-3.71,0-6.59,1.19-8.63,3.56s-3.06,5.72-3.06,10.04v9.23c0,4.43,1.02,7.85,3.06,10.26s4.92,3.62,8.63,3.62c2.04,0,3.99-.52,5.84-1.57,1.85-1.04,3.46-2.52,4.81-4.43l6.93,7.67c-1.82,2.81-4.28,4.98-7.38,6.51-3.1,1.53-6.55,2.29-10.35,2.29Z"/>
      <path class="cls-1" d="M445.68,135.21V56.71h9.62v78.49h-9.62ZM475.38,135.21v-33.96c0-3.96-.89-7.02-2.67-9.18-1.77-2.16-4.3-3.24-7.57-3.24s-5.57.94-7.28,2.81c-1.71,1.87-2.57,4.52-2.57,7.94l-.99-10.8c1.51-3.31,3.48-5.88,5.92-7.69s5.13-2.73,8.09-2.73c5.31,0,9.42,1.99,12.33,5.97,2.91,3.98,4.36,9.6,4.36,16.87v34.01h-9.62Z"/>
    </g>
  </g>
</svg>